<svg xmlns="http://www.w3.org/2000/svg" width="7611.096" height="7611.096" viewBox="0 0 7611.096 7611.096"><g transform="translate(818.356 3557.703)"><path d="M5250.765,2263.2,4305.954,1884.55c-351.08-192.15-640.564-480.991-832.735-832.651L3003.265,192.15c-140.434-256.2-508.146-256.2-648.569,0L1884.743,1051.9c-192.171,351.049-481.044,640.5-832.737,832.651L192.169,2354.46c-256.226,140.413-256.226,508.081,0,648.5l859.836,470.521c351.082,192.15,640.566,480.991,832.737,832.649l470.564,859.751c140.434,256.2,508.145,256.2,648.58,0l469.953-860.362c192.161-351.047,481.034-640.51,832.736-832.66L5166.4,3002.343C5422.011,2862.542,5506.986,2403.617,5250.765,2263.2ZM3410.98,3665.33l-1465.4-1465.4L1316.7,2828.8l-228.175-228.176L2579.757,1109.4l228.175,228.175-633.618,633.618,1465.4,1465.4Z" transform="translate(2970.348 -3557.703) rotate(45)" fill="#5a4fff"/><path d="M5250.765,2263.2,4305.954,1884.55c-351.08-192.15-640.564-480.991-832.735-832.651L3003.265,192.15c-140.434-256.2-508.146-256.2-648.569,0L1884.743,1051.9c-13.644,24.924-549.53-23.924-563.917,0-191.344,318.2,57.9,654.143-268.821,832.651L192.169,2354.46c-256.226,140.413-256.226,508.081,0,648.5l859.836,470.521c351.082,192.15,640.566,480.991,832.737,832.649l470.564,859.751c140.434,256.2,508.145,256.2,648.58,0l469.953-860.362c192.161-351.047,481.034-640.51,832.736-832.66L5166.4,3002.343C5422.011,2862.542,5506.986,2403.617,5250.765,2263.2ZM3410.98,3665.33,1421.686,4004.406l-100.859-892.031-232.3-511.747,333.161-1240.467,672.73,71.89L4088.33,2600.629l-448.613,835.964Z" transform="translate(5666.21 -2454.995) rotate(90)" fill="#5a4fff"/></g></svg>